<svg xmlns="http://www.w3.org/2000/svg" xmlns:xlink="http://www.w3.org/1999/xlink" width="500" zoomAndPan="magnify" viewBox="0 0 375 374.999991" height="500" preserveAspectRatio="xMidYMid meet" version="1.0"><defs><clipPath id="757d3176d5"><path d="M 37.734375 33 L 359.777344 33 L 359.777344 363 L 37.734375 363 Z M 37.734375 33 " clip-rule="nonzero"/></clipPath><clipPath id="d5b8c1992d"><path d="M 218 302.421875 L 318 302.421875 L 318 375 L 218 375 Z M 218 302.421875 " clip-rule="nonzero"/></clipPath></defs><g clip-path="url(#757d3176d5)"><path fill="#333333" d="M 343.730469 91.542969 C 327.449219 82.925781 309.664062 88.128906 299.585938 103.132812 C 286.203125 123.058594 272.332031 142.667969 258.34375 162.175781 C 269.253906 140.359375 269.644531 114.761719 258.136719 92.664062 C 253.234375 83.246094 245.996094 75.964844 237.585938 71.054688 C 238.539062 66.28125 238.40625 61.351562 236.914062 56.738281 C 231.332031 39.460938 214.875 30.148438 197.222656 34.167969 C 187.820312 36.308594 178.183594 38.503906 168.574219 39.460938 C 169.824219 39.285156 171.082031 39.109375 172.335938 38.9375 C 170.730469 39.132812 169.117188 39.320312 167.511719 39.496094 C 165.5 39.710938 163.484375 39.910156 161.46875 40.09375 C 158.847656 40.328125 156.226562 40.523438 153.601562 40.691406 C 150.171875 39.40625 146.449219 38.757812 142.53125 38.9375 C 138.632812 39.109375 134.792969 39.964844 131.183594 41.382812 C 127.125 41.371094 123.066406 41.296875 119.007812 41.132812 C 114.160156 40.929688 109.304688 40.628906 104.46875 40.210938 C 102.449219 40.039062 100.4375 39.847656 98.425781 39.636719 C 96.542969 39.441406 87.242188 38.273438 96.152344 39.476562 C 87.144531 38.257812 79.496094 37.925781 71.292969 42.734375 C 64.597656 46.660156 58.214844 54.339844 56.464844 62.042969 C 54.582031 70.320312 54.992188 79.601562 59.714844 86.949219 C 63.914062 93.46875 70.9375 100.710938 78.996094 101.800781 C 89.847656 103.265625 100.660156 104.296875 111.445312 104.898438 C 112.5 133.792969 113.875 162.636719 117.25 191.359375 C 96.394531 187.808594 74.722656 191.945312 55.992188 203.394531 C 41.589844 212.191406 34.847656 232.746094 44.417969 247.605469 C 47.464844 252.34375 51.59375 256.21875 56.304688 258.972656 C 56.277344 260.613281 56.234375 262.25 56.175781 263.886719 C 55.90625 271.125 54.832031 278.300781 54.550781 285.542969 C 54.339844 291.058594 54.378906 296.570312 54.554688 302.085938 C 44.53125 307.683594 37.230469 318.269531 37.765625 330.179688 C 38.542969 347.589844 51.941406 362.625 70.03125 362.496094 C 105.671875 362.253906 142.328125 343.550781 163.578125 314.203125 C 173.058594 326.824219 185.410156 335.746094 201.175781 339.96875 C 219.394531 344.84375 237.753906 345.070312 254.546875 335.515625 C 283.523438 319.035156 300.777344 283.652344 303.625 251.472656 C 304.675781 239.585938 302.992188 227.539062 299.019531 216.335938 C 318.320312 189.820312 337.070312 162.898438 355.304688 135.757812 C 364.75 121.695312 358.46875 99.339844 343.730469 91.542969 " fill-opacity="1" fill-rule="nonzero"/></g><path fill="#ffdc31" d="M 153.703125 83.597656 C 172.125 82.464844 190.472656 79.859375 208.660156 75.71875 C 222.152344 72.644531 216.445312 51.871094 202.941406 54.941406 C 185.007812 59.023438 166.707031 61.578125 148.324219 62.550781 C 144.398438 60.183594 139.011719 60.3125 135.464844 62.960938 C 120.414062 63.144531 105.351562 62.261719 90.433594 60.253906 C 84.6875 59.476562 78.890625 61.632812 77.203125 67.773438 C 75.828125 72.792969 78.921875 80.242188 84.714844 81.023438 C 100.546875 83.164062 116.398438 84.242188 132.226562 84.25 C 133.527344 123.632812 134.429688 163.109375 140.167969 202.140625 C 141.015625 207.898438 148.289062 211.074219 153.402344 209.667969 C 159.5625 207.96875 161.757812 202.191406 160.910156 196.414062 C 155.433594 159.136719 154.882812 121.242188 153.703125 83.597656 " fill-opacity="1" fill-rule="nonzero"/><path fill="#ffdc31" d="M 219.039062 144.527344 C 216.058594 149.632812 212.410156 156.265625 207.285156 159.558594 C 198.382812 165.277344 188.375 146.839844 187.8125 139.835938 C 187.3125 133.632812 191.058594 128.136719 194.425781 123.277344 C 198.617188 117.207031 203.480469 111.675781 208.664062 106.445312 C 211.394531 105.738281 214.699219 106.914062 216.785156 108.648438 C 221.097656 112.226562 222.925781 118.488281 223.601562 123.832031 C 224.574219 131.46875 222.875 137.960938 219.039062 144.527344 Z M 239.5625 103.535156 C 231.707031 88.171875 213.15625 80.488281 198.171875 87.683594 C 197.527344 87.941406 196.894531 88.265625 196.273438 88.6875 C 194.496094 89.710938 192.773438 90.953125 191.144531 92.445312 C 189.769531 93.699219 188.871094 95.058594 188.335938 96.449219 C 177.703125 107.75 167.273438 121.539062 166.351562 136.875 C 165.300781 154.238281 177.792969 173.019531 193.492188 179.980469 C 212.179688 188.269531 226.699219 172.789062 235.855469 158.261719 C 246.328125 141.640625 248.710938 121.429688 239.5625 103.535156 " fill-opacity="1" fill-rule="nonzero"/><path fill="#ffdc31" d="M 240.695312 292.054688 C 235.03125 297.785156 228.964844 301.511719 220.78125 300.128906 C 212.707031 298.765625 205.011719 297.144531 199.5625 290.617188 C 193.886719 283.824219 190.613281 275.171875 188.859375 266.578125 C 186.882812 256.894531 189.589844 248.34375 194.003906 239.734375 C 202.226562 223.714844 217.191406 201.398438 238.28125 208.566406 C 238.601562 208.675781 238.917969 208.761719 239.230469 208.839844 C 252.679688 213.949219 260.371094 229.304688 260.855469 243.171875 C 261.488281 261.085938 253.1875 279.414062 240.695312 292.054688 Z M 242.949219 187.363281 C 242.488281 187.230469 242.042969 187.132812 241.601562 187.058594 C 215.128906 179.679688 192.125 199.992188 179.453125 221.539062 C 172.613281 233.175781 166.121094 246.527344 166.535156 260.367188 C 166.914062 273.132812 171.269531 286.589844 178.042969 297.363281 C 185.007812 308.453125 194.199219 315.789062 206.894531 319.191406 C 219.484375 322.5625 231.976562 323.574219 243.6875 316.914062 C 265.8125 304.332031 279.800781 276.066406 282.113281 251.472656 C 284.636719 224.660156 269.894531 195.203125 242.949219 187.363281 " fill-opacity="1" fill-rule="nonzero"/><path fill="#ffdc31" d="M 135.585938 275.921875 C 128.59375 292.8125 114.640625 306.082031 98.085938 313.324219 C 97.5625 304.070312 97.214844 294.804688 97.574219 285.542969 C 97.867188 277.917969 99 270.375 99.234375 262.753906 C 99.449219 255.707031 99.394531 248.632812 99.050781 241.585938 C 98.921875 238.921875 98.851562 236.066406 98.625 233.21875 C 106.523438 232.320312 114.566406 233.523438 121.902344 237.566406 C 128.03125 240.949219 133.253906 245.816406 136.476562 252.089844 C 140.457031 259.847656 138.792969 268.164062 135.585938 275.921875 Z M 131.105469 218.097656 C 110.46875 207.707031 86.335938 210.085938 66.847656 221.992188 C 55.097656 229.171875 65.75 247.671875 77.550781 240.6875 C 77.570312 241.660156 77.59375 242.675781 77.636719 243.773438 C 77.894531 250.472656 77.933594 257.191406 77.6875 263.886719 C 77.414062 271.125 76.34375 278.300781 76.0625 285.542969 C 75.65625 296.054688 76.15625 306.570312 76.796875 317.066406 C 76.835938 317.746094 76.941406 318.375 77.078125 318.980469 C 74.738281 319.246094 72.390625 319.394531 70.03125 319.40625 C 56.191406 319.5 56.164062 341.046875 70.03125 340.953125 C 109.355469 340.683594 150.191406 312.746094 159.035156 273.050781 C 164.117188 250.269531 151.558594 228.390625 131.105469 218.097656 " fill-opacity="1" fill-rule="nonzero"/><path fill="#ffffff" d="M 318.15625 114.007812 C 288.5 158.160156 257.273438 202.363281 224.675781 244.082031 C 208.625 232.621094 192.488281 221.289062 176.476562 209.78125 C 171.753906 206.382812 164.5 208.953125 161.761719 213.648438 C 158.59375 219.066406 160.890625 224.984375 165.617188 228.382812 C 184.132812 241.695312 202.828125 254.753906 221.34375 268.0625 C 224.816406 270.5625 231.644531 269.835938 234.378906 266.378906 C 270.414062 220.800781 304.332031 173.113281 336.730469 124.886719 C 344.480469 113.351562 325.851562 102.554688 318.15625 114.007812 " fill-opacity="1" fill-rule="nonzero"/><path fill="#333333" d="M 81.714844 124.917969 C 81.773438 140.296875 83.59375 155.59375 87.054688 170.578125 C 89.808594 182.488281 108.113281 177.449219 105.355469 165.523438 C 102.261719 152.136719 100.746094 138.65625 100.695312 124.917969 C 100.648438 112.6875 81.667969 112.664062 81.714844 124.917969 " fill-opacity="1" fill-rule="nonzero"/><path fill="#333333" d="M 108.882812 32.117188 C 130.667969 37.265625 153.097656 36.929688 174.683594 30.929688 C 186.4375 27.664062 181.445312 9.316406 169.640625 12.597656 C 151.324219 17.6875 132.4375 18.164062 113.921875 13.789062 C 102.046875 10.980469 96.972656 29.300781 108.882812 32.117188 " fill-opacity="1" fill-rule="nonzero"/><g clip-path="url(#d5b8c1992d)"><path fill="#333333" d="M 225.171875 374.59375 C 266.613281 380.636719 296.386719 349.703125 315.992188 317.03125 C 322.296875 306.523438 305.894531 296.953125 299.601562 307.441406 C 285.222656 331.402344 261.996094 360.898438 230.21875 356.265625 C 225.109375 355.519531 220.078125 357.535156 218.546875 362.902344 C 217.269531 367.363281 220.101562 373.859375 225.171875 374.59375 " fill-opacity="1" fill-rule="nonzero"/></g></svg>